<svg width="40" height="40" viewBox="0 0 40 40" fill="none" xmlns="http://www.w3.org/2000/svg">
<rect width="40" height="40" rx="12" fill="#815FD5"/>
<path fill-rule="evenodd" clip-rule="evenodd" d="M17 12.5H23C23.2761 12.5 23.5 12.7239 23.5 13V20.5H16.5V13C16.5 12.7239 16.7239 12.5 17 12.5ZM15 13C15 11.8954 15.8954 11 17 11H23C24.1046 11 25 11.8954 25 13V20.5V22H23.5H16.5H15V20.5V13ZM11 18C10.4477 18 10 18.4477 10 19V20C10 20.5523 10.4477 21 11 21H12C12.5523 21 13 20.5523 13 20V19C13 18.4477 12.5523 18 12 18H11ZM28 18C27.4477 18 27 18.4477 27 19V20C27 20.5523 27.4477 21 28 21H29C29.5523 21 30 20.5523 30 20V19C30 18.4477 29.5523 18 29 18H28ZM14 24.75C13.8619 24.75 13.75 24.8619 13.75 25V29H12.25V25C12.25 24.0335 13.0335 23.25 14 23.25H26C26.9665 23.25 27.75 24.0335 27.75 25V29H26.25V25C26.25 24.8619 26.1381 24.75 26 24.75H14Z" fill="#F5F7FC"/>
</svg>
